<svg id="Layer_2" data-name="Layer 2" xmlns="http://www.w3.org/2000/svg" width="20" height="20" viewBox="0 0 20 20">
  <g id="invisible_box" data-name="invisible box">
    <rect id="Rectangle_14" data-name="Rectangle 14" width="20" height="20" fill="none"/>
  </g>
  <g id="icons_Q2" data-name="icons Q2" transform="translate(4 2)">
    <path id="Path_6" data-name="Path 6" d="M15.82,11.892l-.96-1.155A1.809,1.809,0,0,1,14.5,9.69V7.416C14.5,4.491,12.88,2,10,2S5.5,4.419,5.5,7.416V9.943a1.046,1.046,0,0,1-.21.614L4.18,11.892A.8.8,0,0,0,4,12.4V15a.67.67,0,0,0,.6.722H7.93a2.256,2.256,0,0,0,2.07,2.1,2.256,2.256,0,0,0,2.07-2.1H15.4A.67.67,0,0,0,16,15V12.4A.8.8,0,0,0,15.82,11.892ZM14.8,14.275H5.2V12.723l.93-1.155A2.563,2.563,0,0,0,6.7,9.943V7.416c0-1.913.87-3.971,3.3-3.971s3.3,2.13,3.3,3.971V9.69a3.467,3.467,0,0,0,.69,2.058l.81.975Z" transform="translate(-4 -2)" fill="#00843d"/>
  </g>
</svg>
